# xmcd
#
# Track frame offsets:
#	150
#	21488
#	44642
#	66221
#	84454
#	103020
#	120069
#	141276
#	156605
#	176920
#	196865
#	212584
#	237225
#	266273
#
# Disc length: 3566 seconds
#
# Revision: 1
# Processed by: cddbd v1.5.2PL0 Copyright (c) Steve Scherf et al.
# Submitted via: audiograbber 1.83.01
#
DISCID=c70dec0e
DTITLE=Krax - Endalaust
DYEAR=2007
DGENRE=
TTITLE0=Saela
TTITLE1=Moturlandit
TTITLE2=Illsynileg
TTITLE3=Tofrateppi
TTITLE4=Veggur
TTITLE5=010
TTITLE6=Roum
TTITLE7=Kjarkur
TTITLE8=Vofa
TTITLE9=Orta
TTITLE10=Lopi
TTITLE11=Tindatar
TTITLE12=Gossentid
TTITLE13=Data Track
EXTD=
EXTT0=
EXTT1=
EXTT2=
EXTT3=
EXTT4=
EXTT5=
EXTT6=
EXTT7=
EXTT8=
EXTT9=
EXTT10=
EXTT11=
EXTT12=
EXTT13=
PLAYORDER=
